<svg id="Layer_1" data-name="Layer 1" xmlns="http://www.w3.org/2000/svg" viewBox="0 0 1038 573"><defs><style>.cls-1{fill:#2b4367;}</style></defs><path class="cls-1" d="M727.79,256l-33,32.46-18.6,18.28,18.35,18.55L743.7,375H708.46l-67.37-67.61L694.48,256h33.31m63.55-26H684l-80,77,93.67,94H806l-93-94,78.34-77Z"/><path class="cls-1" d="M824.46,160l-34.35,33.76H567V375H500V193.76H222V160H824.46M888,134H196v85.76H474V401H593V219.76H800.75L888,134Z"/><path class="cls-1" d="M436,256v17.5H343V375H314V273.5H222V256H436m26-26H196v69.5h92V401h81V299.5h93V230Z"/></svg>